# xmcd CD database file
#
# Track frame offsets:
#	150
#	60744
#	193462
#
# Disc length: 3418 seconds
#
# Revision: 0
# Processed by: cddbd v1.5.2PL0 Copyright (c) Steve Scherf et al.
# Submitted via: jetAudio 7
#
DISCID=2a0d5803
DTITLE=黃慧音  - 藥師 - 灌頂眞言
DYEAR=1900
DGENRE=Chorus
TTITLE0=藥師灌頂眞言﹝梵音唱誦-鋼琴伴奏版﹞
TTITLE1=藥師灌頂眞言﹝梵音唱誦﹞
TTITLE2=藥師灌頂眞言﹝音樂縯奏﹞
EXTD=
EXTT0=
EXTT1=
EXTT2=
PLAYORDER=
